<?xml version="1.0" encoding="UTF-8"?>
<svg width="2880px" height="1024px" viewBox="0 0 2880 1024" version="1.1" xmlns="http://www.w3.org/2000/svg" xmlns:xlink="http://www.w3.org/1999/xlink">
    <!-- Generator: Sketch 52.1 (67048) - http://www.bohemiancoding.com/sketch -->
    <title>Desktop HD</title>
    <desc>Created with Sketch.</desc>
    <g id="Desktop-HD" stroke="none" stroke-width="1" fill="none" fill-rule="evenodd">
        <g id="BG" fill="#B1CCED" fill-rule="nonzero">
            <rect id="Rectangle" x="0" y="0" width="2880" height="1024"></rect>
        </g>
        <g id="SKYLINE" transform="translate(0.000000, 420.000000)" fill-rule="nonzero">
            <rect id="Rectangle" fill="#96ACC6" x="0" y="322" width="222" height="282"></rect>
            <rect id="Rectangle" fill="#96ACC6" x="389" y="206" width="121" height="398"></rect>
            <rect id="Rectangle" fill="#96ACC6" x="674" y="199" width="121" height="398"></rect>
            <rect id="Rectangle" fill="#ABBFD6" x="221" y="92" width="144" height="512"></rect>
            <rect id="Rectangle" fill="#ABBFD6" x="365" y="257" width="84" height="347"></rect>
            <rect id="Rectangle" fill="#ABBFD6" x="510" y="431" width="60" height="206"></rect>
            <rect id="Rectangle" fill="#ABBFD6" x="570" y="398" width="121" height="206"></rect>
            <rect id="Rectangle" fill="#ABBFD6" x="691" y="431" width="60" height="206"></rect>
            <g id="Group-17" transform="translate(221.000000, 0.000000)" fill="#ABBFD6">
                <polygon id="Rectangle" points="36 46 72 0 72 92 0 92"></polygon>
                <polygon id="Rectangle" transform="translate(108.000000, 46.000000) scale(-1, 1) translate(-108.000000, -46.000000) " points="108 46 144 0 144 92 72 92"></polygon>
            </g>
            <rect id="Rectangle" fill="#ABBFD6" x="161" y="398" width="121" height="206"></rect>
        </g>
        <g id="SKYLINE" transform="translate(1290.000000, 476.000000)" fill-rule="nonzero">
            <rect id="Rectangle" fill="#96ACC6" x="0" y="317" width="222" height="278"></rect>
            <rect id="Rectangle" fill="#96ACC6" x="389" y="203" width="121" height="392"></rect>
            <rect id="Rectangle" fill="#96ACC6" x="674" y="196" width="121" height="392"></rect>
            <rect id="Rectangle" fill="#ABBFD6" x="221" y="91" width="144" height="504"></rect>
            <rect id="Rectangle" fill="#ABBFD6" x="365" y="253" width="84" height="342"></rect>
            <rect id="Rectangle" fill="#ABBFD6" x="510" y="424" width="60" height="203"></rect>
            <rect id="Rectangle" fill="#ABBFD6" x="570" y="392" width="121" height="203"></rect>
            <rect id="Rectangle" fill="#ABBFD6" x="691" y="424" width="60" height="203"></rect>
            <g id="Group-17" transform="translate(221.000000, 0.000000)" fill="#ABBFD6">
                <polygon id="Rectangle" points="36 45.5 72 0 72 91 0 91"></polygon>
                <polygon id="Rectangle" transform="translate(108.000000, 45.500000) scale(-1, 1) translate(-108.000000, -45.500000) " points="108 45.5 144 0 144 91 72 91"></polygon>
            </g>
            <rect id="Rectangle" fill="#ABBFD6" x="161" y="392" width="121" height="203"></rect>
        </g>
        <g id="SKYLINE" transform="translate(575.000000, 514.000000)" fill-rule="nonzero">
            <rect id="Rectangle" fill="#96ACC6" x="217" y="230" width="222" height="282"></rect>
            <rect id="Rectangle" fill="#96ACC6" x="606" y="114" width="121" height="398"></rect>
            <rect id="Rectangle" fill="#96ACC6" x="891" y="107" width="121" height="398"></rect>
            <rect id="Rectangle" fill="#ABBFD6" x="438" y="0" width="144" height="512"></rect>
            <rect id="Rectangle" fill="#ABBFD6" x="582" y="165" width="84" height="347"></rect>
            <rect id="Rectangle" fill="#ABBFD6" x="727" y="339" width="60" height="206"></rect>
            <rect id="Rectangle" fill="#ABBFD6" x="787" y="306" width="121" height="206"></rect>
            <rect id="Rectangle" fill="#ABBFD6" x="908" y="339" width="60" height="206"></rect>
            <rect id="Rectangle" fill="#ABBFD6" x="378" y="306" width="121" height="206"></rect>
            <rect id="Rectangle" fill="#96ACC6" x="470" y="419" width="121" height="93"></rect>
            <rect id="Rectangle" fill="#96ACC6" x="0" y="419" width="66" height="93"></rect>
        </g>
        <g id="SKYLINE" transform="translate(2085.000000, 703.000000)" fill-rule="nonzero">
            <rect id="Rectangle" fill="#96ACC6" x="0" y="169" width="222" height="207"></rect>
            <rect id="Rectangle" fill="#96ACC6" x="389" y="84" width="121" height="292"></rect>
            <rect id="Rectangle" fill="#96ACC6" x="674" y="79" width="121" height="292"></rect>
            <rect id="Rectangle" fill="#ABBFD6" x="221" y="0" width="144" height="376"></rect>
            <rect id="Rectangle" fill="#ABBFD6" x="365" y="121" width="84" height="255"></rect>
            <rect id="Rectangle" fill="#ABBFD6" x="510" y="249" width="60" height="151"></rect>
            <rect id="Rectangle" fill="#ABBFD6" x="570" y="225" width="121" height="151"></rect>
            <rect id="Rectangle" fill="#ABBFD6" x="691" y="249" width="60" height="151"></rect>
            <rect id="Rectangle" fill="#ABBFD6" x="161" y="225" width="121" height="151"></rect>
        </g>
        <g id="Group-17" transform="translate(953.000000, 544.000000)" fill="#96ACC6" fill-rule="nonzero">
            <polygon id="Rectangle" points="543.5 38.5 574 0 574 77 513 77"></polygon>
            <polygon id="Rectangle" points="30.5 162.5 61 124 61 201 0 201"></polygon>
            <polygon id="Rectangle" points="573 1 634 78 573 78"></polygon>
        </g>
        <g id="Train" transform="translate(1907.000000, 833.000000)" fill-rule="nonzero">
            <rect id="Rectangle" stroke="#979797" fill="#4A4A4A" x="0.5" y="46.5" width="546" height="3"></rect>
            <g id="Museum-2" transform="translate(0.000000, 51.000000)">
                <g id="Museum">
                    <rect id="Rectangle" fill="#734C39" x="0" y="0" width="547" height="139.992857"></rect>
                    <g id="Group-11" transform="translate(49.319672, 46.664286)" fill="#563C2F">
                        <g id="Group-3" transform="translate(165.893443, 0.000000)">
                            <rect id="Rectangle" x="0" y="29.1651786" width="104.916393" height="64.1633929"></rect>
                            <ellipse id="Oval" cx="52.4581967" cy="27.9985714" rx="52.4581967" ry="27.9985714"></ellipse>
                        </g>
                        <g id="Group-3">
                            <rect id="Rectangle" x="0" y="29.1651786" width="104.916393" height="64.1633929"></rect>
                            <ellipse id="Oval" cx="52.4581967" cy="27.9985714" rx="52.4581967" ry="27.9985714"></ellipse>
                        </g>
                        <g id="Group-3" transform="translate(331.786885, 0.000000)">
                            <rect id="Rectangle" x="0" y="29.1651786" width="104.916393" height="64.1633929"></rect>
                            <ellipse id="Oval" cx="52.4581967" cy="27.9985714" rx="52.4581967" ry="27.9985714"></ellipse>
                        </g>
                    </g>
                </g>
            </g>
            <g id="Group-14" transform="translate(131.000000, 0.000000)">
                <g id="Group-12" transform="translate(0.000000, 1.777778)">
                    <rect id="Rectangle" fill="#630AB1" x="0" y="0" width="113.203125" height="45.4387947" rx="9"></rect>
                    <path d="M8.99999984,-2.52668474e-07 L106.907489,-6.12506051e-08 C110.360596,-5.44994569e-08 113.159893,2.79929651 113.159893,6.2524038 C113.159893,8.93904501 111.443559,11.3253385 108.896484,12.1800046 L11.8630523,44.739393 C7.15070284,46.3206131 2.04875668,43.7823313 0.467536565,39.0699819 C0.157896204,38.1471923 -3.69520555e-08,37.1802836 -4.02047685e-08,36.2069297 L-1.78795356e-07,8.99999973 C-1.95405772e-07,4.02943698 4.02943704,-2.83729678e-07 8.99999979,-3.00340092e-07 Z" id="Rectangle" fill="#DAD160"></path>
                </g>
                <g id="Group-12" transform="translate(288.000000, 23.222222) scale(-1, -1) translate(-288.000000, -23.222222) translate(231.000000, 0.222222)">
                    <rect id="Rectangle" fill="#630AB1" x="0" y="0" width="113.203125" height="45.4387947" rx="9"></rect>
                    <path d="M8.99999984,-2.52668474e-07 L106.907489,-6.12505989e-08 C110.360596,-5.44994507e-08 113.159893,2.79929651 113.159893,6.2524038 C113.159893,8.93904501 111.443559,11.3253385 108.896484,12.1800046 L11.8630523,44.739393 C7.15070284,46.3206131 2.04875668,43.7823313 0.467536565,39.0699819 C0.157896204,38.1471923 -3.69520501e-08,37.1802836 -4.02047631e-08,36.2069297 L-1.78795356e-07,8.99999973 C-1.95405772e-07,4.02943698 4.02943704,-2.8372968e-07 8.99999979,-3.00340094e-07 Z" id="Rectangle" fill="#DAD160"></path>
                </g>
                <rect id="Rectangle" fill="#630AB1" x="115.898437" y="1.77777778" width="113.203125" height="45.3333333" rx="9"></rect>
                <g id="Group-13" transform="translate(6.289063, 16.888889)" fill="#95AFCE" stroke="#726C6C">
                    <rect id="Rectangle" x="0.5" y="0.5" width="7.0859375" height="8.77777778" rx="2"></rect>
                    <rect id="Rectangle" x="12.1796875" y="0.5" width="7.0859375" height="8.77777778" rx="2"></rect>
                    <rect id="Rectangle" x="23.859375" y="0.5" width="7.0859375" height="8.77777778" rx="2"></rect>
                    <rect id="Rectangle" x="35.5390625" y="0.5" width="7.0859375" height="8.77777778" rx="2"></rect>
                    <rect id="Rectangle" x="47.21875" y="0.5" width="7.0859375" height="8.77777778" rx="2"></rect>
                    <rect id="Rectangle" x="58.8984375" y="0.5" width="7.0859375" height="8.77777778" rx="2"></rect>
                    <rect id="Rectangle" x="70.578125" y="0.5" width="7.0859375" height="8.77777778" rx="2"></rect>
                    <rect id="Rectangle" x="82.2578125" y="0.5" width="7.0859375" height="8.77777778" rx="2"></rect>
                    <rect id="Rectangle" x="93.9375" y="0.5" width="7.0859375" height="8.77777778" rx="2"></rect>
                </g>
                <g id="Group-13" transform="translate(121.289062, 16.888889)" fill="#95AFCE" stroke="#726C6C">
                    <rect id="Rectangle" x="0.5" y="0.5" width="7.0859375" height="8.77777778" rx="2"></rect>
                    <rect id="Rectangle" x="12.1796875" y="0.5" width="7.0859375" height="8.77777778" rx="2"></rect>
                    <rect id="Rectangle" x="23.859375" y="0.5" width="7.0859375" height="8.77777778" rx="2"></rect>
                    <rect id="Rectangle" x="35.5390625" y="0.5" width="7.0859375" height="8.77777778" rx="2"></rect>
                    <rect id="Rectangle" x="47.21875" y="0.5" width="7.0859375" height="8.77777778" rx="2"></rect>
                    <rect id="Rectangle" x="58.8984375" y="0.5" width="7.0859375" height="8.77777778" rx="2"></rect>
                    <rect id="Rectangle" x="70.578125" y="0.5" width="7.0859375" height="8.77777778" rx="2"></rect>
                    <rect id="Rectangle" x="82.2578125" y="0.5" width="7.0859375" height="8.77777778" rx="2"></rect>
                    <rect id="Rectangle" x="93.9375" y="0.5" width="7.0859375" height="8.77777778" rx="2"></rect>
                </g>
                <g id="Group-13" transform="translate(237.187500, 16.888889)" fill="#95AFCE" stroke="#726C6C">
                    <rect id="Rectangle" x="0.5" y="0.5" width="7.0859375" height="8.77777778" rx="2"></rect>
                    <rect id="Rectangle" x="12.1796875" y="0.5" width="7.0859375" height="8.77777778" rx="2"></rect>
                    <rect id="Rectangle" x="23.859375" y="0.5" width="7.0859375" height="8.77777778" rx="2"></rect>
                    <rect id="Rectangle" x="35.5390625" y="0.5" width="7.0859375" height="8.77777778" rx="2"></rect>
                    <rect id="Rectangle" x="47.21875" y="0.5" width="7.0859375" height="8.77777778" rx="2"></rect>
                    <rect id="Rectangle" x="58.8984375" y="0.5" width="7.0859375" height="8.77777778" rx="2"></rect>
                    <rect id="Rectangle" x="70.578125" y="0.5" width="7.0859375" height="8.77777778" rx="2"></rect>
                    <rect id="Rectangle" x="82.2578125" y="0.5" width="7.0859375" height="8.77777778" rx="2"></rect>
                    <rect id="Rectangle" x="93.9375" y="0.5" width="7.0859375" height="8.77777778" rx="2"></rect>
                </g>
            </g>
        </g>
        <g id="Town-Hall" transform="translate(1026.000000, 566.000000)" fill-rule="nonzero">
            <rect id="Rectangle" fill="#A1674A" x="2.27373675e-13" y="275" width="502" height="183"></rect>
            <rect id="Rectangle" fill="#A1674A" x="186" y="103" width="127" height="173"></rect>
            <g id="Group-2" transform="translate(41.000000, 307.000000)" fill="#602C11">
                <g id="Group">
                    <rect id="Rectangle" x="0" y="0" width="16.4935065" height="49.3150685"></rect>
                    <rect id="Rectangle" x="0" y="70.6849315" width="16.4935065" height="49.3150685"></rect>
                </g>
                <g id="Group" transform="translate(55.253247, 0.000000)">
                    <rect id="Rectangle" x="0" y="0" width="16.4935065" height="49.3150685"></rect>
                    <rect id="Rectangle" x="0" y="70.6849315" width="16.4935065" height="49.3150685"></rect>
                </g>
                <g id="Group" transform="translate(110.506494, 0.000000)">
                    <rect id="Rectangle" x="0" y="0" width="16.4935065" height="49.3150685"></rect>
                    <rect id="Rectangle" x="0" y="70.6849315" width="16.4935065" height="49.3150685"></rect>
                </g>
            </g>
            <g id="Group-2" transform="translate(334.000000, 307.000000)" fill="#602C11">
                <g id="Group">
                    <rect id="Rectangle" x="0" y="0" width="16.4935065" height="49.3150685"></rect>
                    <rect id="Rectangle" x="0" y="70.6849315" width="16.4935065" height="49.3150685"></rect>
                </g>
                <g id="Group" transform="translate(55.253247, 0.000000)">
                    <rect id="Rectangle" x="0" y="0" width="16.4935065" height="49.3150685"></rect>
                    <rect id="Rectangle" x="0" y="70.6849315" width="16.4935065" height="49.3150685"></rect>
                </g>
                <g id="Group" transform="translate(110.506494, 0.000000)">
                    <rect id="Rectangle" x="0" y="0" width="16.4935065" height="49.3150685"></rect>
                    <rect id="Rectangle" x="0" y="70.6849315" width="16.4935065" height="49.3150685"></rect>
                </g>
            </g>
            <g id="Group-3" transform="translate(209.000000, 364.000000)" fill="#602C11">
                <rect id="Rectangle" x="0" y="29.6842105" width="84" height="64.3157895"></rect>
                <ellipse id="Oval" cx="42" cy="28.0350877" rx="42" ry="28.0350877"></ellipse>
            </g>
            <polygon id="Rectangle" fill="#602C11" points="209 295 244 295 244 342.55239 209 365"></polygon>
            <polygon id="Rectangle" fill="#602C11" transform="translate(275.500000, 330.000000) scale(-1, 1) translate(-275.500000, -330.000000) " points="258 295 293 295 293 342.55239 258 365"></polygon>
            <polygon id="Rectangle" fill="#602C11" points="209 295 244 295 244 342.55239 209 365"></polygon>
            <polygon id="Rectangle" fill="#602C11" transform="translate(275.500000, 330.000000) scale(-1, 1) translate(-275.500000, -330.000000) " points="258 295 293 295 293 342.55239 258 365"></polygon>
            <rect id="Rectangle" fill="#602C11" x="209" y="184" width="35" height="74"></rect>
            <rect id="Rectangle" fill="#602C11" x="258" y="184" width="35" height="74"></rect>
            <g id="Group-10" transform="translate(223.000000, 118.000000)">
                <g id="Group-9">
                    <g id="Group-8">
                        <circle id="Oval" stroke="#602C11" fill="#D8D8D8" cx="26.5" cy="26.5" r="26.5"></circle>
                        <g id="Group-5" transform="translate(26.546875, 26.453125) rotate(90.000000) translate(-26.546875, -26.453125) translate(7.546875, 7.453125)" fill="#602C11" stroke="#1B1919">
                            <g id="Group-4" transform="translate(18.749589, 18.875711) rotate(150.000000) translate(-18.749589, -18.875711) translate(17.749589, -2.124289)">
                                <rect id="Rectangle" x="0.5" y="0.5" width="1" height="5.625"></rect>
                                <rect id="Rectangle" x="0.5" y="35.28125" width="1" height="5.625"></rect>
                            </g>
                            <g id="Group-4" transform="translate(18.703836, 19.047286) rotate(120.000000) translate(-18.703836, -19.047286) translate(17.703836, -1.952714)">
                                <rect id="Rectangle" x="0.5" y="0.5" width="1" height="5.625"></rect>
                                <rect id="Rectangle" x="0.5" y="35.28125" width="1" height="5.625"></rect>
                            </g>
                        </g>
                        <rect id="Rectangle" fill="#602C11" x="25.671875" y="9.109375" width="1.65625" height="18.21875"></rect>
                        <rect id="Rectangle" fill="#602C11" x="26.5" y="14.90625" width="1.65625" height="12.421875"></rect>
                    </g>
                    <g id="Group-5" transform="translate(7.453125, 7.453125)" fill="#602C11" stroke="#1B1919">
                        <g id="Group-4" transform="translate(18.749589, 18.875711) rotate(150.000000) translate(-18.749589, -18.875711) translate(17.749589, -2.124289)">
                            <rect id="Rectangle" x="0.5" y="0.5" width="1" height="5.625"></rect>
                            <rect id="Rectangle" x="0.5" y="35.28125" width="1" height="5.625"></rect>
                        </g>
                        <g id="Group-4" transform="translate(18.703836, 19.047286) rotate(120.000000) translate(-18.703836, -19.047286) translate(17.703836, -1.952714)">
                            <rect id="Rectangle" x="0.5" y="0.5" width="1" height="5.625"></rect>
                            <rect id="Rectangle" x="0.5" y="35.28125" width="1" height="5.625"></rect>
                        </g>
                    </g>
                </g>
                <rect id="Rectangle" stroke="#1B1919" fill="#602C11" x="26.171875" y="6.296875" width="1" height="5.625"></rect>
                <rect id="Rectangle" stroke="#1B1919" fill="#602C11" x="26.171875" y="41.078125" width="1" height="5.625"></rect>
                <g id="Group-4" transform="translate(26.203125, 26.671875) rotate(90.000000) translate(-26.203125, -26.671875) translate(25.203125, 5.671875)" fill="#602C11" stroke="#1B1919">
                    <rect id="Rectangle" x="0.5" y="0.5" width="1" height="5.625"></rect>
                    <rect id="Rectangle" x="0.5" y="35.28125" width="1" height="5.625"></rect>
                </g>
            </g>
            <g id="Group-7" transform="translate(186.000000, 0.000000)" fill="#A1674A">
                <polygon id="Rectangle" points="28.4512987 79.0153846 56.9025974 54.3230769 56.9025974 103.707692 0 103.707692"></polygon>
                <polygon id="Rectangle" points="70.0974026 54.3230769 127 103.707692 70.0974026 103.707692"></polygon>
                <g id="Group-6" transform="translate(10.720779, 0.000000)">
                    <polygon id="Rectangle" points="51.9545455 107 51.9545455 0 105.558442 107"></polygon>
                    <polygon id="Rectangle" points="53.6038961 107 0 107 53.6038961 0"></polygon>
                </g>
            </g>
        </g>
        <g id="Museum" transform="translate(66.000000, 790.000000)">
            <rect id="Rectangle" fill="#81533C" fill-rule="nonzero" x="0" y="0" width="564" height="234"></rect>
            <g id="Group-11" transform="translate(56.000000, 26.000000)" fill="#602C11" fill-rule="nonzero">
                <g id="Group-3" transform="translate(99.792000, 0.000000)">
                    <rect id="Rectangle" x="0" y="23.125" width="62.832" height="50.875"></rect>
                    <ellipse id="Oval" cx="31.416" cy="22.2" rx="31.416" ry="22.2"></ellipse>
                </g>
                <g id="Group-3">
                    <rect id="Rectangle" x="0" y="23.125" width="62.832" height="50.875"></rect>
                    <ellipse id="Oval" cx="31.416" cy="22.2" rx="31.416" ry="22.2"></ellipse>
                </g>
                <g id="Group-3" transform="translate(199.584000, 0.000000)">
                    <rect id="Rectangle" x="0" y="23.125" width="62.832" height="50.875"></rect>
                    <ellipse id="Oval" cx="31.416" cy="22.2" rx="31.416" ry="22.2"></ellipse>
                </g>
                <g id="Group-3" transform="translate(299.376000, 0.000000)">
                    <rect id="Rectangle" x="0" y="23.125" width="62.832" height="50.875"></rect>
                    <ellipse id="Oval" cx="31.416" cy="22.2" rx="31.416" ry="22.2"></ellipse>
                </g>
                <g id="Group-3" transform="translate(399.168000, 0.000000)">
                    <rect id="Rectangle" x="0" y="23.125" width="62.832" height="50.875"></rect>
                    <ellipse id="Oval" cx="31.416" cy="22.2" rx="31.416" ry="22.2"></ellipse>
                </g>
            </g>
            <rect id="Rectangle" fill="#302F30" fill-rule="nonzero" x="194" y="151" width="186" height="83"></rect>
            <rect id="Rectangle" fill="#464546" fill-rule="nonzero" x="187" y="140" width="200" height="18"></rect>
            <text id="MUSEUM-OF-SCIENCE-AN" font-family="Avenir-Heavy, Avenir" font-size="14" font-weight="600" letter-spacing="0.5" fill="#F7F7F7">
                <tspan x="147" y="131">MUSEUM OF SCIENCE AND INDUSTR</tspan>
                <tspan x="411.89" y="131" letter-spacing="-0.200000003">Y</tspan>
            </text>
        </g>
        <g id="Group-18" transform="translate(1684.000000, 769.000000)">
            <g id="Group-16" transform="translate(1.000000, 0.000000)">
                <g id="Group-15" fill-rule="nonzero">
                    <g id="Group-19">
                        <rect id="Rectangle" fill="#E1E2E4" x="0" y="0" width="180" height="180.695341"></rect>
                        <rect id="Rectangle" stroke="#979797" fill="#D8D8D8" x="169.398678" y="180.390805" width="2.17180617" height="77.8017241"></rect>
                    </g>
                    <rect id="Rectangle" fill="#ABC3E2" x="0" y="180.695341" width="127.665198" height="96.3046595"></rect>
                </g>
                <rect id="Rectangle" fill="#FFFFFF" fill-rule="nonzero" x="15.8590308" y="18.9396552" width="43.6123348" height="96.4770115"></rect>
                <text id="DEPT" transform="translate(38.000000, 67.405286) rotate(270.000000) translate(-38.000000, -67.405286) " font-family="Avenir-Black, Avenir" font-size="28" font-weight="700" letter-spacing="0.560000241" fill="#000000">
                    <tspan x="-0.405286344" y="76.4052863">DEPT</tspan>
                </text>
            </g>
            <rect id="Rectangle" fill="#828082" fill-rule="nonzero" transform="translate(65.500000, 217.000000) scale(1, -1) rotate(-180.000000) translate(-65.500000, -217.000000) " x="2" y="179" width="127" height="76"></rect>
            <rect id="Rectangle" fill="#828082" fill-rule="nonzero" x="0" y="0" width="181" height="2"></rect>
            <rect id="Rectangle" fill="#828082" fill-rule="nonzero" x="0" y="254" width="130" height="2"></rect>
            <polygon id="Rectangle" fill="#828082" fill-rule="nonzero" transform="translate(1.000000, 128.000000) rotate(90.000000) translate(-1.000000, -128.000000) " points="-126 127 128 127 128 129 -126 129"></polygon>
            <polygon id="Rectangle" fill="#828082" fill-rule="nonzero" transform="translate(180.000000, 91.000000) rotate(90.000000) translate(-180.000000, -91.000000) " points="90 90 270 90 270 92 90 92"></polygon>
            <rect id="Rectangle" fill="#828082" fill-rule="nonzero" transform="translate(155.000000, 180.000000) scale(1, -1) rotate(-180.000000) translate(-155.000000, -180.000000) " x="129" y="179" width="52" height="2"></rect>
            <polygon id="Rectangle" fill="#828082" fill-rule="nonzero" transform="translate(129.000000, 218.000000) scale(1, -1) rotate(90.000000) translate(-129.000000, -218.000000) " points="91 217 167 217 167 219 91 219"></polygon>
        </g>
        <rect id="Rectangle" stroke="#979797" fill="#D8D8D8" fill-rule="nonzero" x="818.5" y="642.5" width="110" height="382"></rect>
        <rect id="Rectangle" stroke="#979797" fill="#D8D8D8" fill-rule="nonzero" x="707.5" y="418.5" width="221" height="361"></rect>
        <g id="Clouds" transform="translate(435.000000, 98.000000)" fill-rule="nonzero">
            <g id="cloud" transform="translate(731.000000, 43.000000)" fill="#EAEAEA">
                <ellipse id="Oval" cx="37" cy="36" rx="37" ry="23"></ellipse>
                <ellipse id="Oval" cx="146" cy="36" rx="37" ry="23"></ellipse>
                <path d="M88.5,60 C112.524387,60 132,53.0398242 132,34.1688754 C132,15.2979266 112.524387,0 88.5,0 C64.4756134,0 45,15.2979266 45,34.1688754 C45,53.0398242 64.4756134,60 88.5,60 Z" id="Oval"></path>
            </g>
            <g id="cloud" transform="translate(860.000000, 43.000000)" fill="#FFFFFF">
                <ellipse id="Oval" cx="48.5" cy="72.5" rx="48.5" ry="46.5"></ellipse>
                <ellipse id="Oval" cx="192.5" cy="72.5" rx="48.5" ry="46.5"></ellipse>
                <path d="M117,120 C148.480231,120 174,106.079648 174,68.3377509 C174,30.5958532 148.480231,0 117,0 C85.5197693,0 60,30.5958532 60,68.3377509 C60,106.079648 85.5197693,120 117,120 Z" id="Oval"></path>
            </g>
            <g id="cloud" transform="translate(990.000000, 46.000000)" fill="#D8D8D8">
                <ellipse id="Oval" cx="48.5" cy="54.5" rx="48.5" ry="34.5"></ellipse>
                <ellipse id="Oval" cx="192.5" cy="54.5" rx="48.5" ry="34.5"></ellipse>
                <path d="M117,90 C148.480231,90 174,79.5597364 174,51.2533131 C174,22.9468899 148.480231,0 117,0 C85.5197693,0 60,22.9468899 60,51.2533131 C60,79.5597364 85.5197693,90 117,90 Z" id="Oval"></path>
            </g>
            <g id="cloud" transform="translate(1719.000000, 10.000000)" fill="#D8D8D8">
                <ellipse id="Oval" cx="20.5" cy="19.5" rx="20.5" ry="12.5"></ellipse>
                <ellipse id="Oval" cx="81.5" cy="19.5" rx="20.5" ry="12.5"></ellipse>
                <path d="M49,33 C62.254834,33 73,29.1719033 73,18.7928815 C73,8.41385964 62.254834,0 49,0 C35.745166,0 25,8.41385964 25,18.7928815 C25,29.1719033 35.745166,33 49,33 Z" id="Oval"></path>
            </g>
            <g id="cloud" transform="translate(860.000000, 43.000000)" fill="#FFFFFF">
                <ellipse id="Oval" cx="48.5" cy="72.5" rx="48.5" ry="46.5"></ellipse>
                <ellipse id="Oval" cx="192.5" cy="72.5" rx="48.5" ry="46.5"></ellipse>
                <path d="M117,120 C148.480231,120 174,106.079648 174,68.3377509 C174,30.5958532 148.480231,0 117,0 C85.5197693,0 60,30.5958532 60,68.3377509 C60,106.079648 85.5197693,120 117,120 Z" id="Oval"></path>
            </g>
            <g id="cloud" transform="translate(990.000000, 46.000000)" fill="#EAEAEA">
                <ellipse id="Oval" cx="48.5" cy="54.5" rx="48.5" ry="34.5"></ellipse>
                <ellipse id="Oval" cx="192.5" cy="54.5" rx="48.5" ry="34.5"></ellipse>
                <path d="M117,90 C148.480231,90 174,79.5597364 174,51.2533131 C174,22.9468899 148.480231,0 117,0 C85.5197693,0 60,22.9468899 60,51.2533131 C60,79.5597364 85.5197693,90 117,90 Z" id="Oval"></path>
            </g>
            <g id="cloud" transform="translate(2050.000000, 0.000000)" fill="#FFFFFF">
                <ellipse id="Oval" cx="62.5" cy="87.5" rx="62.5" ry="56.5"></ellipse>
                <ellipse id="Oval" cx="247.5" cy="87.5" rx="62.5" ry="56.5"></ellipse>
                <path d="M150.5,146 C191.092929,146 224,129.063572 224,83.1442635 C224,37.2249548 191.092929,0 150.5,0 C109.907071,0 77,37.2249548 77,83.1442635 C77,129.063572 109.907071,146 150.5,146 Z" id="Oval"></path>
            </g>
            <g id="cloud" transform="translate(0.000000, 235.000000)" fill="#FFFFFF">
                <ellipse id="Oval" cx="37" cy="51" rx="37" ry="33"></ellipse>
                <ellipse id="Oval" cx="146" cy="51" rx="37" ry="33"></ellipse>
                <path d="M88.5,85 C112.524387,85 132,75.139751 132,48.4059069 C132,21.6720627 112.524387,0 88.5,0 C64.4756134,0 45,21.6720627 45,48.4059069 C45,75.139751 64.4756134,85 88.5,85 Z" id="Oval"></path>
            </g>
            <g id="cloud" transform="translate(448.000000, 318.000000)" fill="#FFFFFF">
                <ellipse id="Oval" cx="26" cy="36.5" rx="26" ry="23.5"></ellipse>
                <ellipse id="Oval" cx="103" cy="36.5" rx="26" ry="23.5"></ellipse>
                <path d="M62.5,60 C79.3446849,60 93,53.0398242 93,34.1688754 C93,15.2979266 79.3446849,0 62.5,0 C45.6553151,0 32,15.2979266 32,34.1688754 C32,53.0398242 45.6553151,60 62.5,60 Z" id="Oval"></path>
            </g>
            <g id="cloud" transform="translate(134.000000, 258.000000)" fill="#FFFFFF">
                <ellipse id="Oval" cx="48.5" cy="72.5" rx="48.5" ry="46.5"></ellipse>
                <ellipse id="Oval" cx="192.5" cy="72.5" rx="48.5" ry="46.5"></ellipse>
                <path d="M116.5,120 C148.256373,120 174,106.079648 174,68.3377509 C174,30.5958532 148.256373,0 116.5,0 C84.7436269,0 59,30.5958532 59,68.3377509 C59,106.079648 84.7436269,120 116.5,120 Z" id="Oval"></path>
            </g>
            <g id="cloud" transform="translate(1460.000000, 121.000000)" fill="#FFFFFF">
                <ellipse id="Oval" cx="37" cy="51" rx="37" ry="33"></ellipse>
                <ellipse id="Oval" cx="146" cy="51" rx="37" ry="33"></ellipse>
                <path d="M88.5,85 C112.524387,85 132,75.139751 132,48.4059069 C132,21.6720627 112.524387,0 88.5,0 C64.4756134,0 45,21.6720627 45,48.4059069 C45,75.139751 64.4756134,85 88.5,85 Z" id="Oval"></path>
            </g>
        </g>
    </g>
</svg>